<svg width="18" height="16" viewBox="0 0 18 16" fill="none" xmlns="http://www.w3.org/2000/svg">
  <path
    d="M7.57895 10C8.52632 10 9.52105 10.16 10.6105 10.44C9.84316 11.31 9.47368 12.33 9.47368 13.5C9.47368 14.39 9.71053 15.23 10.2126 16H0V14C0 12.81 0.862105 11.85 2.59579 11.12C4.32947 10.38 5.99684 10 7.57895 10ZM7.57895 8C6.55579 8 5.68421 7.61 4.90737 6.83C4.14947 6.05 3.78947 5.11 3.78947 4C3.78947 2.92 4.14947 2 4.90737 1.18C5.68421 0.38 6.55579 0 7.57895 0C8.63053 0 9.52105 0.38 10.26 1.18C10.9989 2 11.3684 2.92 11.3684 4C11.3684 5.11 10.9989 6.05 10.26 6.83C9.52105 7.61 8.63053 8 7.57895 8ZM14.6842 6H18V8H16.1053V13.5C16.1053 14.163 15.8557 14.7989 15.4116 15.2678C14.9674 15.7366 14.365 16 13.7368 16C13.1087 16 12.5063 15.7366 12.0621 15.2678C11.618 14.7989 11.3684 14.163 11.3684 13.5C11.3684 12.837 11.618 12.2011 12.0621 11.7322C12.5063 11.2634 13.1087 11 13.7368 11C14.0779 11 14.3905 11.07 14.6842 11.21V6Z"
    fill="#e5e5e5" />
</svg>
